<svg xmlns="http://www.w3.org/2000/svg" xmlns:xlink="http://www.w3.org/1999/xlink" version="1.0" x="0px" y="0px" viewBox="0 0 100 100" enable-background="new 0 0 100 100" xml:space="preserve"><path d="M87,73.4H13c-0.9,0-1.6-0.7-1.6-1.6V28.3c0-0.9,0.7-1.6,1.6-1.6H87c0.9,0,1.6,0.7,1.6,1.6v43.5C88.6,72.6,87.9,73.4,87,73.4  z M14.6,70.1h70.8V29.9H14.6V70.1z"></path><path d="M50,73.3c-0.9,0-1.6-0.7-1.6-1.6V28.6c0-0.9,0.7-1.6,1.6-1.6s1.6,0.7,1.6,1.6v43.1C51.6,72.5,50.9,73.3,50,73.3z"></path><path d="M86.4,59.2h-9c-0.9,0-1.6-0.7-1.6-1.6V41.1c0-0.9,0.7-1.6,1.6-1.6h9c0.9,0,1.6,0.7,1.6,1.6s-0.7,1.6-1.6,1.6H79V56h7.4  c0.9,0,1.6,0.7,1.6,1.6S87.3,59.2,86.4,59.2z"></path><path d="M22.8,59.2h-9c-0.9,0-1.6-0.7-1.6-1.6s0.7-1.6,1.6-1.6h7.4V42.8h-7.4c-0.9,0-1.6-0.7-1.6-1.6s0.7-1.6,1.6-1.6h9  c0.9,0,1.6,0.7,1.6,1.6v16.5C24.4,58.5,23.7,59.2,22.8,59.2z"></path><path d="M50.2,58.1c-4.8,0-8.7-3.9-8.7-8.7s3.9-8.7,8.7-8.7s8.7,3.9,8.7,8.7S55,58.1,50.2,58.1z M50.2,43.9c-3,0-5.4,2.4-5.4,5.4  s2.4,5.4,5.4,5.4s5.4-2.4,5.4-5.4S53.2,43.9,50.2,43.9z"></path></svg>