<?xml version="1.0" encoding="UTF-8" standalone="no"?>
<!-- Created with Inkscape (http://www.inkscape.org/) -->
<svg
    xmlns:svg="http://www.w3.org/2000/svg"
    xmlns="http://www.w3.org/2000/svg"
    version="1.0"
    width="400"
    height="400"
    id="svg2">
  <defs
      id="defs4" />
  <g
      id="layer1">
    <path
        d="M 345.00001 336.29074 A 93.214287 93.214287 0 1 1  158.57143,336.29074 A 93.214287 93.214287 0 1 1  345.00001 336.29074 z"
        transform="matrix(2.059451,0,0,2.059451,-318.5403,-492.5743)"
        style="fill:white;fill-opacity:1;fill-rule:evenodd;stroke:#003e81;stroke-width:1;stroke-linejoin:round;stroke-miterlimit:4;stroke-dasharray:none;stroke-opacity:1"
        id="path1882" />
    <path
        d="M 137.09518,214.46129 C 119.84827,235.15991 108.89419,258.06155 101.99346,281.09509 C 115.53278,306.10395 136.10273,325.25394 159.10814,342.3744 C 186.0487,333.02332 213.66621,324.34922 235.26106,309.65244 C 231.98236,281.7197 230.78473,252.22616 221.57732,228.73996 C 192.61954,223.3826 163.02969,217.5512 137.09518,214.46129 z "
        style="fill:#003e81;fill-opacity:1;fill-rule:evenodd;stroke:#003e81;stroke-width:1.66584504px;stroke-linecap:butt;stroke-linejoin:miter;stroke-opacity:1"
        id="path2772" />
    <path
        d="M 280.47684,165.08088 L 255.48916,90.71281 C 271.14154,80.806746 283.63616,66.840734 304.27464,63.345358 C 324.73894,76.656859 344.27032,92.27927 360.79437,124.02971 C 359.18547,145.49516 352.74964,162.93818 346.5157,180.54945 L 280.47684,165.08088 z "
        style="fill:#003e81;fill-opacity:1;fill-rule:evenodd;stroke:#003e81;stroke-width:1.66584504px;stroke-linecap:butt;stroke-linejoin:miter;stroke-opacity:1"
        id="path2774" />
    <path
        d="M 359.60448,258.48719 C 344.41164,284.18548 328.63252,308.8711 304.86958,319.7665 C 305.17592,333.34202 303.34656,346.44294 296.54035,358.43789 L 303.67968,362.00756 C 333.88073,340.07703 361.61707,313.52518 379.23766,268.00631 L 359.60448,258.48719 z "
        style="fill:#003e81;fill-opacity:1;fill-rule:evenodd;stroke:#003e81;stroke-width:1.66584504px;stroke-linecap:butt;stroke-linejoin:miter;stroke-opacity:1"
        id="path2776" />
    <path
        d="M 110.71632,130.40563 C 126.86546,107.58442 148.00162,88.325387 169.61284,69.405669 C 161.07289,54.325308 151.79276,40.281168 139.3232,30.702259 C 114.36003,37.744852 93.633532,52.201605 71.592204,64.357409 C 55.467358,84.830961 55.640589,105.3045 52.240499,125.77805 C 71.732435,129.75823 91.224387,129.3126 110.71632,130.40563 z "
        style="fill:#003e81;fill-opacity:1;fill-rule:evenodd;stroke:#003e81;stroke-width:1.66584504px;stroke-linecap:butt;stroke-linejoin:miter;stroke-opacity:1"
        id="path2845" />
    <path
        d="M 107.77149,368.09514 C 124.8189,371.79568 134.63329,382.00595 159.09561,379.03306 C 168.51167,387.11821 180.64243,388.869 192.33007,391.65376 C 157.11362,391.91273 133.0567,379.2953 107.77149,368.09514 z "
        style="fill:#003e81;fill-opacity:1;fill-rule:evenodd;stroke:#003e81;stroke-width:1.66584504px;stroke-linecap:butt;stroke-linejoin:miter;stroke-opacity:1"
        id="path2847" />
    <path
        d="M 42.985331,309.19863 C 41.638195,307.51587 36.955505,267.55039 40.881885,267.55039 C 23.859281,243.08764 18.980188,217.91055 15.219826,192.66767 L 9.3301811,192.24698 C 6.9134731,242.35853 24.856223,281.20317 42.985331,309.19863 z "
        style="fill:#003e81;fill-opacity:1;fill-rule:evenodd;stroke:#003e81;stroke-width:1.66584504px;stroke-linecap:butt;stroke-linejoin:miter;stroke-opacity:1"
        id="path2849" />
    <path
        d="M 15.219826,192.24698 C 23.188879,168.04532 33.162243,144.84581 52.240499,126.19874"
        style="fill:none;fill-rule:evenodd;stroke:#003e81;stroke-width:1.66584504px;stroke-linecap:butt;stroke-linejoin:miter;stroke-opacity:1"
        id="path2851" />
    <path
        d="M 110.29563,129.14357 C 111.32452,162.00804 123.65081,188.71029 136.79906,214.96421"
        style="fill:none;fill-rule:evenodd;stroke:#003e81;stroke-width:1.66584504px;stroke-linecap:butt;stroke-linejoin:miter;stroke-opacity:1"
        id="path2853" />
    <path
        d="M 169.19215,69.826362 C 197.93925,74.160524 226.68637,78.677446 255.43348,89.598759"
        style="fill:none;fill-rule:evenodd;stroke:#003e81;stroke-width:1.66584504px;stroke-linecap:butt;stroke-linejoin:miter;stroke-opacity:1"
        id="path2855" />
    <path
        d="M 139.3232,30.281567 C 155.99219,20.823765 176.02008,10.821568 207.16765,8.0461872"
        style="fill:none;fill-rule:evenodd;stroke:#003e81;stroke-width:1.66584504px;stroke-linecap:butt;stroke-linejoin:miter;stroke-opacity:1"
        id="path2857" />
    <path
        d="M 70.330143,64.778085 C 69.76922,64.217178 69.76922,64.217178 70.330143,64.778085 z "
        style="fill:none;fill-rule:evenodd;stroke:#003e81;stroke-width:1.66584504px;stroke-linecap:butt;stroke-linejoin:miter;stroke-opacity:1"
        id="path2859" />
    <path
        d="M 70.550264,64.63616 L 67.385312,61.412578"
        style="fill:none;fill-rule:evenodd;stroke:#003e81;stroke-width:1.66584504px;stroke-linecap:butt;stroke-linejoin:miter;stroke-opacity:1"
        id="path2863" />
    <path
        d="M 101.04046,281.85381 C 101.04046,281.71358 101.04046,281.57335 101.04046,281.85381 z "
        style="fill:none;fill-rule:evenodd;stroke:#003e81;stroke-width:1.66584504px;stroke-linecap:butt;stroke-linejoin:miter;stroke-opacity:1"
        id="path2865" />
    <path
        d="M 39.619824,265.86762 C 53.864515,280.16918 76.485774,282.74351 101.88185,281.43312"
        style="fill:none;fill-rule:evenodd;stroke:#003e81;stroke-width:1.66584504px;stroke-linecap:butt;stroke-linejoin:miter;stroke-opacity:1"
        id="path2867" />
    <path
        d="M 159.51629,342.01241 C 156.09514,354.21239 157.81631,366.41239 158.67492,378.61237"
        style="fill:#003e81;fill-opacity:1;fill-rule:evenodd;stroke:#003e81;stroke-width:1.66584504px;stroke-linecap:butt;stroke-linejoin:miter;stroke-opacity:1"
        id="path2869" />
    <path
        d="M 305.49552,318.87449 C 277.23419,324.03714 255.68568,316.89293 233.97831,310.04001"
        style="fill:none;fill-rule:evenodd;stroke:#003e81;stroke-width:1.66584504px;stroke-linecap:butt;stroke-linejoin:miter;stroke-opacity:1"
        id="path2871" />
    <path
        d="M 279.83346,165.32286 C 279.69323,165.32286 279.553,165.32286 279.83346,165.32286 z "
        style="fill:none;fill-rule:evenodd;stroke:#003e81;stroke-width:1.66584504px;stroke-linecap:butt;stroke-linejoin:miter;stroke-opacity:1"
        id="path2873" />
    <path
        d="M 222.19902,229.26765 C 243.91642,208.98314 264.51876,188.2526 280.67484,165.74355"
        style="fill:none;fill-rule:evenodd;stroke:#003e81;stroke-width:1.66584504px;stroke-linecap:butt;stroke-linejoin:miter;stroke-opacity:1"
        id="path2875" />
    <path
        d="M 347.14376,180.46767 C 355.49319,205.08461 359.96523,231.15555 359.34376,259.13659"
        style="fill:none;fill-rule:evenodd;stroke:#003e81;stroke-width:1.66584504px;stroke-linecap:butt;stroke-linejoin:miter;stroke-opacity:1"
        id="path2877" />
    <path
        d="M 361.02651,124.51599 C 367.62211,127.01615 375.90704,128.78495 381.43253,136.63567"
        style="fill:none;fill-rule:evenodd;stroke:#003e81;stroke-width:1.66584504px;stroke-linecap:butt;stroke-linejoin:miter;stroke-opacity:1"
        id="path2879" />
    <path
        d="M 304.23344,61.833271 C 303.95298,61.833271 303.67253,61.833271 304.23344,61.833271 z "
        style="fill:none;fill-rule:evenodd;stroke:#003e81;stroke-width:1.66584504px;stroke-linecap:butt;stroke-linejoin:miter;stroke-opacity:1"
        id="path2881" />
    <path
        d="M 263.00589,18.922953 C 278.0234,32.155276 293.5415,44.63672 304.23344,64.357409"
        style="fill:none;fill-rule:evenodd;stroke:#003e81;stroke-width:1.66584504px;stroke-linecap:butt;stroke-linejoin:miter;stroke-opacity:1"
        id="path2883" />
  </g>
</svg>
