<svg xmlns="http://www.w3.org/2000/svg" xmlns:xlink="http://www.w3.org/1999/xlink" version="1.1" x="0px" y="0px" viewBox="0 0 100 100" enable-background="new 0 0 100 100" xml:space="preserve"><g><path d="M62.122,28.202l-0.468-0.312c-1.356-0.903-2.634-1.647-3.858-2.248c2.626-2.396,4.19-5.927,4.19-9.666   c0-7.02-5.377-12.73-11.986-12.73c-6.608,0-11.984,5.71-11.984,12.73c0,3.739,1.565,7.27,4.19,9.666   c-1.226,0.6-2.502,1.344-3.859,2.247l-0.467,0.312l-0.232,1.65c-0.716,5.062-1.457,10.295-0.202,15.46l0.089,0.367l0.277,0.256   c2.621,2.42,2.746,5.001,2.128,8.131l-0.018,0.129c-0.024,0.264-0.013,0.486,0.025,0.674l-0.017,0.004l3.146,15.29h-1.464   c-1.391,0.004-2.522,1.137-2.522,2.526v11.879c0,1.254,0.941,2.383,2.243,2.684c2.681,0.607,5.677,0.929,8.666,0.929   c2.989,0,5.985-0.321,8.673-0.93c1.296-0.3,2.237-1.429,2.237-2.683V72.69c0-1.39-1.131-2.522-2.525-2.526h-1.46l3.146-15.29   l-0.017-0.003c0.038-0.189,0.049-0.413,0.023-0.679l-0.018-0.125c-0.618-3.13-0.492-5.711,2.129-8.131l0.278-0.256l0.089-0.367   c1.255-5.167,0.514-10.401-0.202-15.463L62.122,28.202z M60.208,44.37c-3.372,3.312-3.229,6.961-2.614,10.117   c0.001,0.004,0.001,0.008,0.001,0.011l-3.736,18.166l4.552,0.026v11.879c0,0.051-0.12,0.205-0.296,0.246   c-5.005,1.133-11.23,1.132-16.222,0.001c-0.181-0.042-0.301-0.196-0.301-0.247l0.025-11.905h4.528l-3.739-18.165   c0-0.005,0-0.009,0.001-0.014c0.615-3.156,0.757-6.803-2.614-10.115c-1.025-4.585-0.366-9.244,0.331-14.168l0.075-0.537   c1.771-1.145,3.38-1.984,4.905-2.558l2.388-0.899l-2.174-1.335c-2.962-1.82-4.802-5.228-4.802-8.895   c0-5.641,4.255-10.23,9.484-10.23c5.23,0,9.486,4.589,9.486,10.23c0,3.667-1.84,7.075-4.802,8.895l-2.174,1.335l2.388,0.9   c1.523,0.574,3.132,1.413,4.904,2.559l0.075,0.535C60.575,35.125,61.234,39.783,60.208,44.37z"></path><path d="M20.925,70.831c-7.38,0-13.384,6.004-13.384,13.383c0,7.381,6.004,13.385,13.384,13.385s13.384-6.004,13.384-13.385   C34.309,76.835,28.305,70.831,20.925,70.831z M20.925,95.099c-6.001,0-10.884-4.883-10.884-10.885   c0-6.001,4.882-10.883,10.884-10.883s10.884,4.882,10.884,10.883C31.809,90.216,26.926,95.099,20.925,95.099z"></path><path d="M0,30.874h32.136c-0.37,2.707-0.729,5.82-0.643,8.98H0v2.5h34.144l-0.093-1.336c-0.272-3.923,0.3-7.968,0.759-11.219   l0.201-1.425H0V30.874z"></path><path d="M100,28.374H65.047l0.202,1.425c0.459,3.25,1.031,7.295,0.758,11.219l-0.093,1.337H100v-2.5H68.565   c0.086-3.162-0.272-6.274-0.643-8.98H100V28.374z"></path></g></svg>